<svg xmlns="http://www.w3.org/2000/svg" viewBox="0 0 1200 630" role="img" aria-labelledby="title desc">
  <title id="title">Career planning workspace illustration</title>
  <desc id="desc">A clean professional illustration of a desktop with a resume, checklist, and charts.</desc>
  <defs>
    <linearGradient id="bg" x1="0" x2="1" y1="0" y2="1">
      <stop offset="0%" stop-color="#0f172a"/>
      <stop offset="100%" stop-color="#1e293b"/>
    </linearGradient>
    <linearGradient id="card" x1="0" x2="0" y1="0" y2="1">
      <stop offset="0%" stop-color="#ffffff"/>
      <stop offset="100%" stop-color="#f1f5f9"/>
    </linearGradient>
  </defs>

  <rect width="1200" height="630" fill="url(#bg)" rx="24"/>
  <circle cx="1030" cy="110" r="80" fill="#3b82f6" opacity="0.25"/>
  <circle cx="1080" cy="180" r="42" fill="#22c55e" opacity="0.25"/>

  <rect x="110" y="80" width="980" height="470" rx="20" fill="#0b1220" stroke="#334155" stroke-width="2"/>
  <rect x="140" y="120" width="620" height="390" rx="14" fill="url(#card)"/>
  <rect x="790" y="120" width="270" height="180" rx="14" fill="#111827" stroke="#334155"/>
  <rect x="790" y="330" width="270" height="180" rx="14" fill="#111827" stroke="#334155"/>

  <rect x="175" y="160" width="250" height="22" rx="8" fill="#dbeafe"/>
  <rect x="175" y="195" width="530" height="12" rx="6" fill="#cbd5e1"/>
  <rect x="175" y="215" width="500" height="12" rx="6" fill="#cbd5e1"/>

  <rect x="175" y="255" width="120" height="18" rx="8" fill="#93c5fd"/>
  <rect x="175" y="282" width="500" height="10" rx="5" fill="#cbd5e1"/>
  <rect x="175" y="300" width="470" height="10" rx="5" fill="#cbd5e1"/>
  <rect x="175" y="318" width="485" height="10" rx="5" fill="#cbd5e1"/>

  <rect x="175" y="356" width="120" height="18" rx="8" fill="#86efac"/>
  <rect x="175" y="383" width="515" height="10" rx="5" fill="#cbd5e1"/>
  <rect x="175" y="401" width="490" height="10" rx="5" fill="#cbd5e1"/>

  <rect x="820" y="150" width="210" height="18" rx="9" fill="#334155"/>
  <rect x="820" y="180" width="160" height="10" rx="5" fill="#64748b"/>
  <rect x="820" y="200" width="190" height="10" rx="5" fill="#64748b"/>
  <rect x="820" y="230" width="26" height="26" rx="6" fill="#22c55e"/>
  <rect x="855" y="236" width="150" height="12" rx="6" fill="#94a3b8"/>

  <rect x="820" y="360" width="210" height="18" rx="9" fill="#334155"/>
  <rect x="820" y="393" width="50" height="95" rx="8" fill="#3b82f6"/>
  <rect x="878" y="418" width="50" height="70" rx="8" fill="#22c55e"/>
  <rect x="936" y="380" width="50" height="108" rx="8" fill="#60a5fa"/>

  <text x="150" y="64" fill="#cbd5e1" font-family="Segoe UI, Arial, sans-serif" font-size="28" font-weight="700">Career Essentials</text>
</svg>
